<svg
                width="62"
                height="67"
                fill="none"
                xmlns="http://www.w3.org/2000/svg"
              >
                <path
                  d="M24.898 31.786c-.128 0-.252.103-.379.103s-.252-.112-.379-.112-.255.109-.379.109c-.127 0-.251-.13-.379-.13-.127 0-.254.164-.378.164-.128 0-.252.028-.38.028-.127 0-.254-.19-.378-.19-.127 0-.252.097-.376.1-.127.003-.255-.13-.382-.128-.127.003-.251.031-.379.038-.127.003-.248.142-.372.149-.128.006-.255-.025-.38-.019-.126.006-.257-.071-.381-.062-.124.01-.245.08-.37.093-.124.013-.251.013-.375.028-.125.015-.233.158-.357.177-.125.019-.27-.112-.395-.09-.124.022-.223.168-.348.193-.124.024-.245.043-.366.07-.121.029-.28-.086-.4-.055-.122.031-.227.13-.345.165-.121.034-.236.08-.357.12-.118.041-.242.069-.36.113-.119.043-.187.204-.302.251-.115.05-.254.037-.37.09-.111.053-.273.013-.384.072-.112.055-.19.176-.302.239-.108.062-.192.161-.3.226-.106.066-.224.112-.33.18-.102.069-.245.087-.348.162-.1.074-.118.258-.217.335-.096.078-.286.047-.382.128-.096.08-.118.245-.211.332-.087.077-.245.084-.354.161-.1.069-.168.193-.28.264-.102.062-.205.143-.32.205-.108.062-.226.109-.341.168-.109.059-.264.04-.379.1-.112.058-.14.272-.251.335-.112.059-.23.105-.342.167-.112.062-.217.13-.326.193-.112.065-.286.021-.391.087-.109.068-.246.1-.348.17-.109.075-.155.227-.252.305-.102.084-.217.143-.304.23-.093.093-.106.242-.174.341-.077.109-.282.146-.323.258-.043.118-.05.251-.093.37-.043.117.068.294.028.412-.043.118-.292.165-.335.283l-.134.354c-.043.118.003.27-.037.388-.044.118-.028.261-.068.379-.044.118-.162.211-.205.33-.044.117-.063.248-.106.366-.043.12-.193.198-.236.316-.043.121.028.28-.016.398-.043.12-.059.248-.102.366-.043.121-.065.245-.109.364-.043.12-.062.248-.102.366-.044.121-.196.199-.236.317-.044.12.003.27-.037.388-.044.12-.165.211-.208.329-.044.121.006.27-.035.388-.043.121-.152.214-.192.332-.04.122-.093.236-.134.354-.04.122-.136.22-.177.339-.04.121.053.286.013.404-.04.12-.1.233-.14.35-.04.122-.186.202-.227.32-.04.121-.093.236-.133.354-.04.121.003.267-.037.385-.04.121-.165.212-.202.33-.04.12-.047.251-.084.369-.04.121-.103.233-.143.35-.04.122-.075.243-.112.361-.04.121.037.276 0 .398-.04.12-.251.183-.292.3-.04.122-.009.262-.05.383-.037.12.072.289.035.407-.037.12-.255.183-.292.304-.037.121.025.273-.013.391-.037.121-.102.233-.14.354-.037.121-.123.227-.16.348-.038.121-.057.248-.094.366-.037.121.072.286.034.404-.037.121-.26.186-.298.307-.034.122.013.267-.022.389-.034.12-.114.23-.149.35-.034.122-.024.255-.056.376-.034.121.02.267-.015.385-.034.121-.18.215-.211.333-.031.124-.09.239-.121.357-.031.124-.038.251-.066.372-.03.125-.117.23-.149.351-.03.124-.062.245-.09.367-.028.124.094.28.066.4-.028.124-.187.218-.215.339-.028.124.103.28.078.403-.025.124-.199.218-.224.342-.024.124-.071.245-.093.366-.022.124-.056.249-.074.37-.022.124-.019.255-.038.376-.018.124.103.27.084.39-.018.125-.077.243-.093.367-.015.128.031.258.016.382-.016.127-.156.236-.168.36-.012.128-.034.252-.043.376-.013.124.068.258.058.382-.009.124-.105.245-.111.37-.007.124.13.257.127.382-.006.124-.149.245-.152.37-.003.123.133.25.13.378 0 .124-.012.248-.012.373 0 .124.025.248.028.372.003.124-.069.252-.065.376.003.124.03.248.037.373.006.124-.065.304-.06.431.181.062.209-.015.398-.012.19.003.19.025.38.028.189.003.192-.09.381-.087.19.003.193-.075.382-.072.19.004.186.134.379.137.19.003.192-.118.382-.115.19.003.19 0 .379.003.19.003.186.208.375.211.19.003.19-.059.38-.056.189.004.192-.102.378-.099.19.003.186.183.376.186.19.003.192-.18.382-.177.19.003.19-.037.379-.034.189.003.186.134.375.137.19.003.19-.093.38-.09.189.003.189.028.378.03.19.004.19.029.379.032.19.003.19-.084.379-.08.19.002.186.096.375.099.19.003.19.059.376.062.19.003.19-.109.38-.106.188.003.185.162.375.165.19.003.192-.14.382-.137.19.003.186.168.376.17.189.004.189-.061.378-.058.19.003.193-.143.382-.14.19.003.19.019.38.022.189.003.189.05.378.053.19.003.186.124.376.127.19.003.19-.047.378-.043.19.003.19-.02.38-.016.189.003.189.068.378.071.19.004.19-.062.379-.059.19.004.19.044.379.047.19.003.192-.106.382-.102.19.003.19.024.379.027.19.003.19.007.379.01s.189-.05.381-.047c.19.003.187.183.376.186.19.004.193-.136.382-.133.19.003.19.022.379.025.19.003.19.018.379.022.19.003.19.07.379.074.19.003.192-.146.382-.143.189.003.189.062.378.065.19.004.19.025.38.028.189.004.186.14.375.143.19.003.19-.04.379-.037.19.003.192-.093.382-.09.19.003.19-.072.379-.072.19.004.186.156.375.159.19.003.193-.115.382-.112.19.003.187.168.376.17.19.004.19-.024.379-.02.19.002.192-.175.382-.172.19.003.19.05.379.053.19.003.19.078.378.08.19.004.193-.09.383-.086.189.003.189.071.378.074.19.004.19-.006.38-.003.189.003.189-.056.381-.053.19.004.186.162.376.165.19.003.19-.043.382-.04.19.003.192-.125.382-.121.19.003.19.127.379.13.189.003.189.078.378.08.19.004.193-.133.382-.13.19.004.193-.05.382-.046.19.003.19-.01.382-.006.19.003.19.108.38.111.188.004.192-.062.381-.059.19.004.19.118.379.121.19.004.19.053.379.056.19.003.192-.111.382-.108.19.003.19.065.378.068.19.003.193-.112.382-.109.19.003.187.162.376.165.19.003.193-.15.382-.146.19.003.187.183.376.186.19.003.192-.133.382-.13.19.003.19-.013.379-.01.19.004.19.013.379.016.189.003.189.047.378.05.19.003.193-.044.382-.04.19.002.19.077.38.08.189.003.192-.04.381-.037.19.003.19.068.379.071.19.003.192-.14.382-.136.19.003.19.087.379.09.19.003.19.071.379.074.189.003.192-.174.381-.17.19.002.19.093.38.096.189.003.189.012.378.015.19.003.19.034.379.038.19.003.19.024.379.027.19.004.19-.034.382-.03.19.003.19.049.379.052.19.003.19.019.382.022.189.003.192-.155.381-.152.19.003.19.136.38.14.189.003.189-.007.381-.004.19.004.193-.068.382-.065.19.003.193-.056.382-.053.19.003.19.06.38.063.189.003.185.152.378.155.19.003.19-.003.382 0 .19.003.192-.078.382-.075.19.003.19.069.379.072.19.003.192-.038.382-.034.189.003.192-.094.381-.09.19.002.19.102.38.105.189.003.192-.155.381-.152.19.003.19.074.38.078.189.003.189.083.378.086.19.004.19-.024.382-.021.19.003.193-.097.382-.094.19.004.19.066.379.069.19.003.192-.065.382-.062.19.003.19.046.379.05l.378.002c.19.004.19-.065.382-.062.19.004.187.143.376.146.19.004.19-.062.382-.059.19.004.186.162.379.165.19.003.192-.134.382-.13.19.003.19.111.379.114.189.004.189-.028.382-.024.189.003.192-.14.381-.137.19.003.19.056.38.059.189.003.189.028.378.031.19.003.19-.006.382-.003.19.003.19.105.379.109.19.003.192-.177.385-.174.19.003.186.201.379.205.19.003.192-.146.382-.143.19.003.192-.028.382-.025.19.003.19.127.379.13.189.003.192-.074.382-.071.189.003.189.019.381.022.19.003.19.099.38.102.189.003.189.025.381.028.19.003.193-.202.385-.199.19.004.19.121.38.125.189.003.189.012.378.015.19.003.193-.112.385-.109.19.004.19.078.379.081.19.003.19.065.379.069.192.003.192-.156.385-.153.19.003.19.016.382.019.192.003.192-.003.382 0 .192.003.19.075.382.078.192.003.192-.056.382-.053.192.003.189.198.378.202.193.003.193-.053.386-.05.192.003.226.093.406.031-.012-.127.056-.339.044-.463-.013-.127-.13-.245-.143-.37-.016-.127-.01-.257-.025-.381-.015-.127-.059-.252-.074-.376-.016-.127.012-.26-.004-.385-.015-.127-.096-.245-.111-.37-.019-.127.018-.26 0-.385-.019-.127-.128-.239-.146-.363-.022-.127.071-.273.052-.394-.021-.127-.14-.236-.161-.36-.022-.128.031-.267.01-.392-.026-.127-.116-.239-.14-.36-.025-.127-.112-.239-.14-.36-.028-.127.093-.286.062-.407-.031-.127-.078-.245-.109-.366-.03-.124-.127-.233-.161-.351-.034-.124-.112-.233-.15-.354-.037-.124.026-.277-.009-.395-.037-.124-.198-.204-.236-.326-.04-.12.04-.282 0-.4-.04-.121-.037-.258-.077-.376l-.13-.36c-.047-.121-.125-.227-.171-.345-.047-.118-.215-.19-.261-.304-.047-.118.062-.301.015-.416-.05-.118-.13-.22-.18-.336-.05-.114-.078-.242-.127-.357-.05-.115-.19-.192-.24-.31-.049-.115-.18-.196-.229-.314-.05-.115.075-.304.025-.425-.05-.115-.267-.162-.317-.28-.046-.115.013-.276-.037-.397-.047-.115-.05-.252-.1-.37-.046-.115-.146-.21-.192-.332-.047-.115-.196-.196-.242-.314-.044-.118.018-.276-.028-.397-.044-.118.01-.27-.034-.391-.044-.118-.202-.196-.246-.317-.04-.118.007-.267-.037-.391-.04-.118-.245-.184-.286-.305-.04-.118-.093-.236-.133-.357-.038-.118.034-.273-.006-.397-.038-.118-.13-.224-.168-.348-.037-.118.056-.28.022-.404-.035-.12-.215-.199-.252-.323-.034-.12.022-.27-.012-.391-.035-.121-.019-.258-.053-.382-.034-.121-.19-.211-.224-.335-.03-.121.035-.27.003-.395-.03-.12-.186-.21-.22-.338-.031-.121-.022-.255-.053-.379-.03-.121-.127-.23-.158-.354-.031-.121.08-.28.05-.404-.029-.12-.097-.236-.128-.36-.028-.121-.078-.242-.108-.366-.029-.121-.013-.255-.04-.382-.029-.121-.16-.224-.187-.348-.028-.124.03-.267.003-.391-.028-.125-.118-.233-.146-.36-.025-.125.09-.277.062-.404-.025-.124-.133-.23-.161-.357-.025-.125.03-.264.006-.388-.025-.125-.168-.224-.193-.351-.025-.124.066-.27.04-.398-.024-.124-.176-.223-.201-.348-.025-.124-.065-.245-.09-.372-.025-.124.059-.277.034-.404-.053-.102-.183-.174-.258-.28-.068-.096-.065-.257-.149-.353-.078-.087-.196-.15-.286-.236-.083-.084-.232-.106-.326-.187-.09-.08-.114-.239-.208-.32-.093-.077-.17-.177-.27-.254-.096-.075-.195-.152-.292-.224-.1-.074-.226-.105-.326-.18-.1-.074-.152-.211-.251-.282-.1-.075-.292-.019-.392-.087-.099-.075-.223-.112-.32-.184-.102-.074-.183-.17-.279-.242-.1-.077-.233-.112-.323-.186-.1-.08-.124-.242-.211-.32-.093-.084-.124-.239-.22-.323-.097-.084-.19-.17-.286-.251-.096-.081-.22-.134-.317-.212-.1-.08-.18-.18-.28-.257-.099-.078-.245-.096-.344-.171-.102-.075-.255-.078-.357-.152-.103-.075-.224-.118-.326-.19-.106-.071-.115-.282-.22-.35-.106-.069-.209-.146-.317-.212-.11-.065-.264-.053-.373-.115-.109-.065-.146-.251-.258-.313a17.689 17.689 0 00-.335-.18c-.112-.06-.245-.078-.357-.134-.112-.056-.308.06-.422.003-.115-.052-.19-.19-.305-.239-.115-.05-.183-.22-.298-.267-.118-.046-.27-.01-.388-.053s-.261-.015-.382-.059c-.118-.043-.23-.102-.351-.14-.118-.04-.258-.009-.379-.043-.12-.037-.192-.242-.313-.273-.122-.034-.236-.1-.358-.13-.12-.032-.279.083-.4.055-.121-.028-.22-.17-.345-.195-.124-.025-.254-.006-.379-.028-.124-.022-.239-.1-.363-.118-.124-.019-.248-.044-.376-.06-.124-.015-.267.116-.394.1-.124-.015-.236-.161-.36-.174-.124-.012-.264.13-.388.121-.125-.009-.24-.195-.367-.201-.124-.007-.26.198-.385.195-.124-.003-.248-.037-.376-.037-.124-.003-.251.034-.375.034-.14 0-.28-.121-.382-.196-.09-.068-.23-.155-.295-.285-.05-.1.1-.29.062-.429-.031-.112-.23-.196-.255-.332-.018-.115.078-.258.06-.395-.016-.117.027-.248.015-.381-.013-.122-.056-.243-.069-.376-.009-.121-.105-.242-.114-.373-.01-.12.077-.254.07-.385-.005-.124-.024-.248-.033-.379-.007-.124.025-.251.018-.382-.006-.124-.21-.239-.217-.37-.006-.123.015-.254.01-.384-.007-.124.065-.258.058-.388a6.15 6.15 0 01-.012-.38c0-.114.022-.241.025-.378.003-.118-.01-.245-.003-.379.003-.121-.047-.248-.04-.382.006-.12-.01-.251-.004-.379.006-.124.065-.248.072-.375.006-.125-.019-.252-.013-.38.006-.123.183-.241.193-.369.009-.124-.153-.26-.143-.388.01-.127.037-.252.046-.379.01-.127.084-.248.094-.375.009-.128.102-.249.111-.373.01-.127 0-.255.01-.382.009-.127-.04-.26-.031-.385.009-.13.05-.255.059-.376.009-.13-.038-.26-.028-.382.009-.133.043-.258.053-.376.009-.136-.072-.27-.063-.385.013-.143.081-.267.087-.372.019-.24.208-.258.022-.292-.186-.034-.168-.034-.35 0-.184.037-.19.006-.377.043-.183.038-.17.109-.354.146-.183.038-.198-.03-.381.006-.187.038-.159.165-.345.202-.187.038-.224-.149-.407-.111-.186.037-.158.167-.345.204-.186.038-.183.047-.37.084-.185.038-.182.04-.369.078-.186.037-.195-.019-.382.019-.186.037-.195-.013-.379.024-.186.038-.17.103-.357.14-.186.037-.177.078-.363.115-.186.037-.22-.13-.404-.093-.186.037-.142.248-.329.286-.186.037-.202-.04-.385-.003-.186.037-.211-.088-.394-.05-.186.037-.152.202-.339.239-.186.037-.201-.04-.385-.003-.186.037-.205-.065-.391-.028-.186.037-.155.19-.341.226-.187.038-.202-.05-.389-.012-.186.037-.155.183-.341.22-.187.038-.199-.027-.385.01-.187.037-.174.09-.36.127-.187.038-.2-.025-.386.013-.186.037-.195-.016-.382.021-.186.038-.18.06-.366.097-.186.037-.205-.063-.391-.025-.186.037-.159.17-.345.208-.186.037-.199-.022-.385.015-.186.038-.19.016-.376.053s-.167.134-.35.171c-.187.037-.178.087-.364.124-.186.037-.22-.127-.407-.09-.186.037-.245-.043-.41.05-.161.093.168.214.18.453.004.106-.052.233-.05.376.004.115.054.236.06.372.003.119-.124.246-.121.376.003.118.13.24.133.367.003.12-.102.248-.1.375.004.122.05.246.054.373.003.121.056.245.059.373.003.12-.13.251-.128.375.003.125.06.246.063.37.003.124-.004.248 0 .373.003.124-.053.248-.05.372.003.124.12.249.124.373.003.124.022.248.022.372 0 .125.03.252.034.376 0 .124-.124.252-.124.376 0 .127.105.252.105.373 0 .127-.077.251-.077.372 0 .127-.05.252-.05.373-.003.127-.06.251-.062.372-.003.128.078.255.074.376-.003.13-.009.255-.015.373-.006.13-.025.255-.031.372-.01.134-.065.252-.078.367-.015.143 0 .267-.022.366-.015.159-.012.233-.077.233z"
                  fill="#eed7d0"
                />
                <path
                  d="M48.01 58.644c-.236.397.301.4.15.49.288.475-.032.19.151.497.187.084.345.037.153.497.307.267.279.608.149.49-.084-.099-.348.38.146.482-.063.258.021.17.142.466-.003.065.326.14.137.444-.223-.121-.096.133.127.419.345.09-.13.326.118.388-.195.37.671.286.109.354.118.276.214.615.177.58.109.566.196.724.155.513-.248.301.438.05.392-.137-.416-.055.096-.065.453-.158.484-.137.49-.314.593-.205.317-.146.562.037.711-.248.003.136.286-.208.391-.137.401.05.14.013.413-.143.305-.056.115-.276.429-.149.391-.236.506-.003.444-.155-.199.26.258-.047.456-.159.376-.093.438-.369.466-.16.006.092.429-.054.472-.166.264.063.202.134.475-.164.212-.028.305.096.475-.165.218.103.54-.245.472-.164-.012.133.243.04.466-.162-.112-.233.249-.5.457-.158-.118-.028.056-.084.444-.155-.034-.15-.106-.038.428-.15-.028-.077.357.178.413-.142.488-.04.168-.215.392-.137.114-.404.09-.515.71-.248.438.006.768-.003.594-.205.714-.007.037.015.453-.159.5-.257.224.05.391-.136-.087.018.05-.007-.062-.227.06.006-.36-.422-.18-.643.357-.077.118-.44-.127-.46.35-.22-.103-.502-.152-.54-.13.056-.264-.742-.174-.614-.211-.274-.037-.258-.193-.68.252.12-.273-.04-.102-.364.077-.366-.553-.102-.109-.376.357-.065-.059.004-.112-.39.075.266.016-.553-.115-.401-.034-.171.094-.11-.118-.413.069-.314.193-.286-.124-.423.062.038-.108.016-.127-.431.037-.267.025-.351-.127-.441-.081-.404-.429-.233-.13-.447.027-.18-.41-.14-.134-.454-.177-.062-.013-.438-.137-.46.26-.13-.04-.021-.137-.465.18.161.066-.06-.14-.47.112-.232-.453-.238-.142-.471-.106-.121-.096-.388-.143-.472.28-.14-.025-.432-.143-.472-.109-.037-.053-.33-.146-.472-.161-.137-.112-.422-.146-.472-.087-.264-.09-.224-.146-.469-.059-.497.062-.422-.146-.466"
                  fill="#EEB5B5"
                />
                <path
                  d="M16.55 66.208c.044-.292.1-.64-.015-.876.072-.301.025-.577-.018-.863.056-.447.111-.55-.019-.848-.109-.239-.04-.46-.022-.832.025-.317-.08-.51-.021-.814.158-.329-.053-.521-.022-.794.046-.274-.087-.435-.022-.774a6.202 6.202 0 00-.047-1.478c.022-.546-.009-.848-.046-1.375.043-.466-.013-.842-.047-1.261-.009-.385-.053-.773-.043-1.134.059-.242-.016-.602-.053-1.012.109-.447-.152-.63-.022-.82.09-.382.112-.844-.052-1.17.158.09-.137-.628-.02-.413-.02-.156-.362.17-.369.863-.13.17-.074.571-.385.879a6.008 6.008 0 00-.53 1.087c-.426.257-.23.888-.581 1.105-.103.484-.488.705-.606 1.019-.264-.441-.59-.743-.92-.907-.288-.187-.446-.4-.881-.786-.304-.226-.4-.534-.91-.702-.44-.31-.313-.41-.773-.534-.363-.167-.621-.285-.879-.447-.161-.307-.584-.152-.87-.397-.291.146-.465-.348-.953-.267-.49.093-.717-.283-1.052-.243-.19-.015-.718-.257-1.155-.13-.472.168-.932-.037-1.292-.109.018.246.068-.385.164-.736-.059-.226.32-.496.18-.816.09-.317.193-.923.33-1.13.273-.137.149-.6.354-1.308.201-.211.068-.686.233-.714.39-.261.133-.553.285-.736-.062-.24.09-.45.305-.789.195-.208.313-.42.26-.826-.012-.136.184-.565.317-.78.075-.363.245-.623.373-.782.205-.248.543-.332.344-.767.081-.273.04-.509.429-.857.062-.226.397-.605.428-.795.283-.335.252-.605.454-.78.136-.195.379-.446.478-.757.134-.49.609-.522.506-.726.345-.566.252-.575.531-.693.218-.05.376-.376.56-.649.229-.127.4-.196.639-.534.332-.025.54-.385.953-.584.382-.121.69-.345 1.196-.615.434.103 1.003-.62 1.37-.63.34-.162.52-.345.726-.314.568-.686.739-.192.745-.31.466-.096.264-.342.752-.305.04-.009.568.159.75-.298.442-.267-.086-1.161.52-.965.046-.342.835-.339.723-.274.193.019 1.062.05 1.357-.5.562-.217.956.2 1.404.261.506.18.642.246.928-.323.578.013.882.13.826-.282-.068-.05-.093.17.115.528.223.611.332.642.854 1.161-.404-.18.841.31.94.621.287.196.361.047.7.388.183.072.239-.059.71.152.6.255.705.581 1.249.277.19-.162.348.55.727.105.111-.108.583.215.8.078.224-.28.718.227.88.05.18-.196.757.183.956.018.46.06.714-.17.963-.015.543.1.363.065.888-.044.633.01.605-.074.816-.068.174.149.798-.155.752-.09.413-.245 1.024.102 1.31-.24.568.373.32.125.826-.22-.012-.108.596.215.702-.245.425-.183.817-.05 1.074-.534.36-.593.9-.59 1.106-1 .164-.071.242-.404.23-.453-.174-.152.481-.031.872.285.475.364.975.24.975.357.317-.062.466.376 1.227.497.385.016.192.289.683.301.252.227 2.636.519 2.664.497-.006.056.429.044.742.37.373.438.684.003.758.404.497-.336.227.394.76.437.172-.21.932.77.755.472.184-.245.77.339.74.506.233-.099-1.711.252-1.23.38.463-.116.04.35.68.574-.019.12 3.232-1.112 3.142-.646.205.431.078.407.472.726.128.351.233.14.401.752.292.42.466.72.512 1.146.159.466.302.848.454 1.164.14.326.453.671.407 1.183.223.42.344.718.37 1.196.213.354.456.789.34 1.205.14.444.24.922.32 1.214.27.335.342 1 .311 1.217.286.199.158.655.307 1.22.153.516.29.845.317 1.218.065.419.27.804.332 1.21-.518-.008-.863.2-1.332.516-.344.062-.391.323-.667.389-.236.096-.41.369-.662.46-.133.052-.472 1.207-.705 1.375-.037.335-.366.363-.54.664-.317.277-.323.578-.534.708-.28.258-.481.4-.475.714-.096.339-.407.46-.438.674-.177.162-.416.466-.463.789-.12.18-.18.484-.36.67-.093.24-.165.454-.413.743-.199.466-.345.798-.633 1.264-.212.313-.28.72-.472 1.018-.376.687-.358.867-.398.932.016.071-.161-.087-.382-.516-.143-.338-.593-.807-.767-1.226-.22-.556-.593-.773-.788-1.199-.122-.419-.423-.435-.36-.543.13-.087-.153.344.018.692-.006.289.012.5.022.814.028.292.046.795.03 1.08.022.441-.08.867.038 1.317-.075.345.025.85.043 1.515-.055.274-.028.317.022.823-.04.202.196.578.025.86.059.323.053.594.025.895.01.335-.028.627.025.922"
                  fill="#fafafa"
                />
                <path
                  opacity=".1"
                  d="M23.693 35.773c4.288 2.199 12.101 1.808 15.585-.407"
                  stroke="#f8d775"
                  stroke-width="1.123"
                  stroke-miterlimit="10"
                />
                <path
                  d="M48.361 66.655c-.018-.18-.233-.382-.046-.5-.072.065-.016-.652-.044-.497-.084-.102-.102-.282-.043-.493.009-.19-.125-.519-.044-.485.177-.385.193-.298-.043-.475-.277-.065.037-.363-.04-.463-.106-.413.099-.248-.041-.447-.199-.267-.006-.258-.037-.431.04-.215-.258-.308-.038-.41.109-.153-.186-.246-.034-.389-.289-.183.053-.444-.062-.698-.037-.453.199-.385-.053-.578-.357-.14.218-.46-.04-.438-.022-.341.304-.416-.034-.375.074.037.006.26.143.214-.084.096-.112.146.357.534-.211.248-.038-.09.223.335-.102-.024.42-.102.24.358.105.065-.09.251.239.357.111-.084.114.136.223.335 0 .301.208.571.357.534-.211-.003.06.072.143.214 0-.149.289.078.267-.28.158-.365-.062-.232.31-.328.069.214.314-.432.41-.432.18.218.118-.506.497-.522.053.255 0-.406.277-.291.034.201.096-.047.292-.308.077-.074.155-.18.307-.323.15.09.112-.043.32-.335.14.012.394-.06.329-.348.391.022.357-.168.339-.357.142-.134.36-.17.344-.363.22-.137.24-.156.351-.37.034-.08.19-.472.354-.373.252-.279.106-.248.357-.375-.112.059.19-.246.357-.376.066-.04.218-.115.354-.373.121-.127.255-.462.351-.37.18-.049.273-.217.345-.362.074-.153.41-.497.338-.358-.233-.071.258-.13.33-.347.263-.047.453-.249.32-.336.21-.077.18-.251.307-.323.09.084.264-.192.292-.307.074-.143.214-.165.276-.292.006-.214.227-.258.497-.522.177-.012.348-.17.41-.431-.016-.196.13-.385.31-.33.174-.183.075-.288.267-.279.016-.093-.093-.047-.195-.36-.212-.08-.1-.245-.097-.478-.17-.13.013-.494-.208-.597-.08-.251-.295-.413-.251-.72-.019.028.236-.109-.14-.4-.28-.28-.152-.441-.149-.423-.146-.127.003-.51-.155-.444-.112-.217.08.072-.162-.463.093-.133-.233-.186-.167-.478-.078-.127-.29-.329-.171-.49-.1-.327-.214-.36-.174-.5-.211-.128.084-.327-.177-.51-.003-.285-.031-.239-.18-.512-.121-.019-.109-.42-.18-.515.018-.143-.146-.274-.18-.516-.159-.109.155-.323-.18-.512-.112-.42-.069-.621-.178-.51-.14-.27-.09-.326-.173-.5-.292-.288-.143-.217-.171-.49-.146-.36-.233-.286-.168-.478-.102-.159-.046-.274-.161-.463.018-.27-.084-.317-.156-.444-.062-.025.047-.158-.149-.422.028-.404-.149-.292-.14-.401-.136-.186-.214-.58-.25-.72.064-.255-.057-.227-.209-.597.04.028-.27-.21-.158-.45-.075-.1-.336-.357-.134-.385-.028.003-.108-.18-.236-.323.072-.214.124-.028-.155-.33-.075-.117-.124-.033-.04-.272-.028-.146-.233-.106-.274-.351.013-.519-.23-.252-.347-.55-.063-.133-.106-.208-.51-.494-.05.019.162-.323-.18-.397-.124-.106.025-.457-.236-.36-.056-.137-.043-.286-.286-.32-.372.161-.177-.047-.332-.273-.062.068-.158-.327-.37-.224.156.075-.412.075-.403-.165.053-.09-.15-.13-.255-.071-.469-.031-.295.025-.633-.177.121.224.022.04-.4-.112.027-.4-.327.022-.423-.118-.304-.155-.227-.12-.422-.118-.075-.046-.407-.22-.4-.112-.134.038-.436.072-.634-.177-.544-.024-.659-.114-.255-.071-.062.044-.304-.192-.32-.168-.543.212-.096.056-.497-.382-.053.016-.28-.198-.391-.295-.33.1-1.854-.422-2.136-.602-.019.17-.801-.193-.65-.065-.204-.093-.145-.376-.44-.208-.28-.187-.447-.19-.457-.177-.096-.128-.481.015-.466-.143-.291.05-.382-.08-.478-.112-.46-.242-.146.031-.484-.078-.155-.117-.351.233-.693-.087-.248.016-.397-.114-.649-.068.022-.19-.111.097-.64-.093-.558-.124-.717-.205-.692-.087.24.01.08-.136 0 .1-.245.562-.223.394 0 .291-.143.109.155.317 0 .476.283-.146-.127.428.003.645.09.33-.205-.183 0 .385.202.066.112.64 0 .426.156-.236-.379-.084 0 .462-.379.292.165.395.003.5-.161.531.118.227.004.535 0 .357.018.23.003.568.167-.171.118.208.003.602 0-.04.593.236.003.634.646.006-.171.198.003.664.133.019.404.6.003.696-.217.056.208.695.003.723.286.128-.155.457.003.752-.133.239.112.183.003.385.053.329.2.289.003.391.063.121.106.233.004.398.062.093.09.118.003.403-.028.171.37.143.003.41-.118-.202.037.367.003.416.012.388.155.4.003.42-.205.127.062.034.003.425-.022.273-.062.323.003.431.143.227.025.302.003.435-.015.199-.192.317.003.441.168-.003-.046.208.004.447-.193.146.13.305.003.45.329.066.009.38.003.454-.04.168.09.053.003.46.056.114-.022.332.003.462.161.227.093.146.003.466-.031.143.068.199.003.472.04.1-.115.332.006.475-.034.249-.037.276.006.478-.07.277.081.187.007.482.084.142-.047.285.006.484-.118.26-.075.373.006.488-.028.267.062.453.006.49.106.15.069.33.007.494-.13.199.099.447.006.497-.013.22.025.251.006.5-.016.155.09.394.006.5.019.335.028.186.006.503.025.03-.052.338.007.506-.035.078-.056.428.006.506-.04.174.062.27.006.51.075.17-.012.419.006.509.078.248.01.338.007.512a1.88 1.88 0 00.006.512c.077.177.009.339.006.513-.01.167-.037.453.01.515.133.24-.029.326.008.516.11.295.04.316.01.515.01.112-.031.31.01.516-.054.04-.054.288.008.515 0 .146.013.304.01.515.09.27.028.51.01.516.005.075.052.174.008.515.168.187.025.2.01.516.174.22-.072.18.01.515.052.168.008.382.008.516.044-.05.044.258.01.515.09.044-.056.171.009.513.112.146.059.09.01.512.024.17.123.572.009.51-.162.07.006.297.012.509.013 0-.08.239.013.506.161.276.226.149.012.506.012.183.1.456.012.503M14.52 66.205c.22-.04.08-.519.1-.624-.128-.208-.032-.47.093-.634.009-.136-.05-.428.087-.643.083-.23.124-.63.08-.658-.112-.093.128-.456.075-.674-.078-.285.186-.525.068-.69 0-.378.093-.58.06-.707.098-.013.005-.537.049-.73.1-.192.12-.605.04-.754-.143-.06.292-.022.019-.386.198-.307-.072-.329.015-.39-.028-.547.078-.336.013-.401.053-.078-.084-.184.01-.407.005-.08.074-.295.015-.416.056-.317.273-.159.003-.398.18-.217-.016-.282.015-.428.081-.252.19-.444-.018-.46-.1-.118-.031-.227-.025-.428-.171-.202.084-.29-.013-.46-.118-.258-.155-.55-.018-.45.155-.276.093-.348.021-.494-.245.037.035.283-.155.513.187.18.05.431-.177.602-.177.19-.31.528-.227.723.106.09-.037.137-.145.432.189-.028-.032.432-.128.444-.056-.043-.068.205-.124.444-.146.1-.4.168-.152.49.236.398-.301.401-.15.491-.288.475.032.19-.151.497-.187.084-.345.038-.152.497-.308.267-.28.609-.15.49.084-.099.348.38-.146.482.063.258-.021.17-.142.466.003.065-.326.14-.137.444.224-.121.096.133-.127.42-.345.09.13.325-.118.387.195.37-.671.286-.109.354-.118.277-.214.615-.177.58-.109.566-.196.725-.155.513.248.301-.438.05-.392-.136.417-.056-.096-.066-.453-.159-.484-.136-.49-.313-.593-.205-.317-.146-.562.038-.711-.248-.003.137-.286-.208-.391-.137-.4.05-.14.013-.413-.142-.305-.056-.115-.277-.429-.15-.391-.236-.506-.003-.444-.155.199.261-.258-.046-.456-.158-.376-.093-.438-.37-.466-.162-.006.093-.429-.053-.472-.164-.264.062-.202.133-.475-.165-.211-.028-.305.093-.475-.164-.218.102-.54-.246-.472-.165.012.133-.243.04-.466-.162.112-.232-.249-.5-.457-.158.118-.028-.056-.084-.444-.155.034-.15.106-.037-.428-.15.028-.077-.357.178-.413-.142-.488-.04-.168-.214-.391-.137-.115-.403-.09-.515-.712-.248-.437.006-.767-.003-.593-.205-.714-.006-.037.015-.453-.158-.5-.258-.224.05-.391-.137.087.019-.05-.006.062-.227-.06.007.36-.422.18-.642-.357-.078-.118-.441.127-.46-.35-.22.103-.503.152-.54.13.056.264-.742.174-.615.211-.273.038-.258.193-.68-.252.12.273-.04.102-.364-.077-.366.553-.102.109-.375-.357-.066.059.003.112-.392-.075.267-.016-.552.115-.4.034-.17-.094-.109.118-.413-.069-.314-.193-.286.124-.422-.062.037.109.015.127-.432-.037-.267-.025-.351.127-.441.081-.404.429-.233.13-.447-.027-.18.41-.14.134-.454.177-.062.013-.437.137-.46-.26-.13.04-.02.137-.465-.18.162-.066-.059.14-.469-.112-.233.453-.239.142-.472.106-.12.097-.388.143-.472-.28-.14.025-.431.143-.472.109-.037.053-.329.146-.472.161-.136.112-.422.146-.472.087-.264.09-.223.146-.469.059-.496-.062-.422.146-.465.23-.395.112-.06.146-.463.018-.183.363-.674.146-.46-.019.177-.29-.295.146-.453.416-.295.034-.776.142-.447.358.248.196-.584.143-.438-.202-.08.292-.155.143-.429-.087-.146-.071-.323.14-.419-.438.385.329-.093.136-.41-.447-.093.286-.273.137-.397.435.096.08-.342.134-.385.136-.308.242.03.13-.373.267-.469.165-.295.13-.36.227-.186.407-.506.249-.674-.186-.23-.124-.239.236-.605.034-.323.093.012.22-.532.261.053.426-.388.205-.447-.285-.015.534-.438.277-.562.205-.506.22-.26.282-.552.097-.125.233-.432.292-.544.019-.329.196-.428.304-.53.268-.669.302-.28.32-.52.165-.192.24-.422.339-.502.056-.146.335-.342.357-.488.453-.17.115-.158.379-.469.298-.214.335-.553.403-.45.507.01-.099-.292.432-.429.155-.363.186-.348.46-.407-.103.153.17-.288.49-.381.354-.243.339-.2.525-.354-.165-.33.4-.33.562-.33.09-.021.103-.05.603-.298.55-.015.189-.313.642-.267.15-.26.106-.524.463-.295.258.047.783-.593.447-.596.087-.158.062-.015.484-.096.094-.115.146-.174.311-.04-.202-.202.034-.398.27-.258.127-.047.391-.152.41-.069.044-.099-.015.013.422-.059.227-.028.106-.108.401-.059.103-.068.205-.22.388-.074-.034-.112.218-.22.379-.09.124.177.08-.19.366-.103.243-.49.485-.152.708-.23.003.069.438.05.677-.254.233-.078.277.071.65.046.502-.192.502-.124.63-.257.149 0 .916.205.838.133.04.04.58-.105.606-.198.226-.075.45-.187.602-.15.42-.024.183-.192.606-.083.447.118.382.307.614-.003.202.03.569.087.628.093-.084.115.059-.202-.006.118.065-.04.242.242-.013.344.236.205.174.438-.022.56-.133.509-.264.487-.03.757.297.292-.007.31-.02.45.013.118.209.485-.018.497.217.118.391.59-.022.54.097.314-.096.584-.021.581-.311.1-.491.283-.025.621.093.205-.14.336-.025.662.199.341.059.55-.028.698.093.292.05.761-.028.733-.224.307-.121.45-.031.767.348.093-.27.398-.016.398.016.298-.282.242-.015.403.093.205-.053.14-.016.413.174.208 0 .062-.015.42-.069.009-.025.142-.016.425.233.025-.018.332-.018.435-.06-.15.046.4-.019.44.062.184-.068.373-.019.448.016.239-.276.403-.018.453-.103.26.062-.04-.019.46-.137.053.103.37-.019.465-.006.038.261.544-.018.472.012.053.093.382-.019.479-.08.217-.14.388-.018.484-.031.435.124.425-.019.488.05.149-.158.32-.019.493.031-.102.134.308-.018.497.186.205-.106.373-.019.503.193.184-.174.305-.018.506.117.013.133.438-.022.513-.1.096-.047.376-.022.515.025.078.053.373-.022.519-.14.317.109.413-.021.521-.137.336.12.383-.022.528.077.09-.034.342-.022.531-.062.053-.037.345-.022.535-.096.313-.056.462-.021.534.096-.019-.205.257-.022.537.022.276.019.335-.022.54-.003.295-.149.193-.022.543-.115.187.022.575-.021.544.046.24.065.45-.022.547.124.145-.17.487-.022.55-.177.285.003.356-.022.549.137.285.196.357-.021.55.056.002 0 .369-.022.552.075.037-.037.41-.022.553.196.292.065.112-.021.553-.115.28.07.335-.022.552-.075.078-.125.522-.022.553-.1-.016-.084.196-.022.553-.102.096-.14.366-.021.553.09.254-.01.251-.022.552a.73.73 0 00-.022.553c.022.22.065.323-.022.553-.059.186-.183.338-.021.55-.032.114.037.36-.022.549.01.102 0 .466-.022.55-.015.146.05.475-.022.546.038.177-.099.382-.021.544-.087.102-.013.347-.022.543.13.158-.006.457-.022.54.056.034-.105.351-.022.537-.062.23-.018.429-.021.535"
                  fill="#EEB5B5"
                />
                <g stroke="#528789" stroke-width=".686" stroke-miterlimit="10">
                  <path
                    d="M15.213 55.293c.13.196.288-.708.357-1.696.087-.518.21-1.12.335-1.704.233-.91.146-1.5.354-1.99.158-.507.183-1.33.26-1.97.212-.58.047-1.214.187-1.64M46.19 45.077c-.114-.36-.32.012.069.649-.084.155-.174 1.003.177 1.68.105.633.109.822.118 1.127-.01.28.109.5.133 1.258-.052.335.063.959.143 1.344.084.646.013.891.146 1.388-.065.584.016.99.146 1.388.236.345-.084 1.022.143 1.345.022.456.028.714.134 1.257-.112.466-.047.758.118 1.128.13.919.086 1.378.177 1.686-.04.525.009.537.068.64"
                  />
                  <path
                    d="M48.5 46.965c-.154-.261-.282.953-.334 2.012-.255.612-.171.969-.311 1.87-.146.403-.289 1.139-.31 1.869-.454 1.14-.36 2.158-.336 2.012M40.583 33.715c.782-.01 1.307.257 1.95.785.68.261 1.093.621 2.027.87.705.288 3.13.782 3.916.807.907.028 1.807.1 2.705.217M14.576 35.242c.981-.67 2.292-.425 3.48-.478.783.065 1.367-.199 1.932-.388.618.022 1.056-.342 1.727-.947"
                  />
                </g>
                <path
                  d="M55.165 58.5l-.42-.189-.444-.111-.428-.168-.453-.078-.42-.205-.469-.012-.453-.084-.456-.05-.454-.071-.447-.096M13.269 57.544l-.46-.003-.45.08-.457.023-.447.118-.469-.016-.431.183-.448.106-.437.143-.441.12-.448.097"
                  stroke="#864A35"
                  stroke-width=".686"
                  stroke-miterlimit="10"
                />

                <path
                  d="M4.648 59.873c1.944-1.22 5.466-1.8 7.757-2.065a50.38 50.38 0 019.052-.22c2.196.146 4.546.509 6.124 2.021 1.577 1.512 1.785 4.534-.115 5.63-.742.429-1.64.484-2.5.534-6.015.33-12.027.662-18.041.99-.888.05-1.81.094-2.637-.241-2.059-.836-3.248-4.385.36-6.649z"
                  fill="#eed7d0"
                />

                <path
                  d="M61.235 64.295c.159-2.329-3.813-6.065-9.769-6.48-3.012-.212-6.036-.43-9.052-.224-2.195.149-4.546.521-6.123 2.074-1.577 1.55-1.786 4.646.115 5.77.742.438 1.64.497 2.5.546l18.041 1.016c.885.046 4.127-.373 4.288-2.702z"
                  fill="#eed7d0"
                />

               

                <path
                  d="M37.99 23.47c-1.212 1.373-2.603 2.789-4.04 3.211 0 0 .456.863 2.03.913 1.845.06.777 3.78 2.333 4.018 0 0-.336-1.35-.336-3.546 0-1.54.013-4.596.013-4.596z"
                  fill="#eed7d0"
                />
                <path
                  d="M40.83 14.956l-.34-.22-.358-.175-.338-.214-.066-.41v-.419l.038-.422-.087-.413v-.389l.065-.385.062-.378.047-.385.003-.389.025-.388.118-.376-.022-.39.068-.386V8.83l.016-.385-.01-.388-.08-.37-.137-.375-.19-.354-.192-.351-.199-.354L38.931 6l-.261-.313-.323-.243-.364-.18-.326-.239-.378-.143-.376-.143-.385-.12-.389-.094-.378-.152-.4-.043-.401-.05-.398-.065-.4-.007-.398-.096-.407.068-.4-.012-.4-.025-.401.062h-.404l-.404.013-.397.062-.395.087-.403.025-.401.052-.394.087-.382.106-.382.106-.376.127-.376.118-.388.093-.354.18-.36.162-.373.136-.354.174-.348.193-.344.195-.323.23-.286.273-.329.224-.245.314-.246.307-.223.323-.236.317-.118.382-.214.338-.106.4-.068.41.006.414.015.412.087.404-.028.413.05.407.012.41.072.407.006.41.022.41-.056.41.012.412-.018.413-.45.13-.364.23-.282.345-.22.37-.144.326-.062.345.155.326.128.338.037.363.084.348.056.376.168.338.16.323.1.357.267.23.274.264.438.168.26.382.267.071.084.373.103.354.074.36.14.345.09.357.149.335.199.357.155.37.15.379.229.332.227.335.189.364.26.307.296.28.254.32.308.266.335.233.342.218.379.152.35.198.373.15.379.133.363.199.4.077.401.05.404.031.4.047.404-.022.404-.003.404-.012.397-.069.41-.015.385-.134.398-.09.385-.13.36-.187.348-.208.36-.17.373-.153.295-.282.341-.205.317-.245.298-.27.28-.286.232-.326.252-.31.23-.327.183-.357.202-.342.223-.335.09-.394.196-.354.112-.385.093-.389.087-.39.03-.401.153-.51.292-.161.276-.177.264-.261.171-.338.314-.22.164-.402.165-.388.08-.413.1-.438.04-.45.084-.438.022-.41-.183-.372-.202-.388z"
                  fill="#eed7d0"
                />
                <path
                  d="M30.807 22.803c2.444.21 3.94-1.86 3.94-1.86"
                  stroke="#864A35"
                  stroke-width=".686"
                  stroke-miterlimit="10"
                />
                <path
                  d="M27.276 16.533a.609.609 0 100-1.217.609.609 0 000 1.217zM36.151 16.533a.609.609 0 100-1.217.609.609 0 000 1.217z"
                  fill="#231F20"
                />
                <path
                  d="M31.897 15.384v3.428M34.102 10.571s-2.41-.556-4.683 0"
                  stroke="#864A35"
                  stroke-width=".686"
                  stroke-miterlimit="10"
                />
                <path
                  d="M40.672 10.13c-.012-.127.04-.276.022-.431-.015-.134-.068-.274-.087-.42-.018-.136-.025-.28-.046-.425-.022-.14-.025-.283-.05-.426-.025-.14-.059-.279-.09-.419-.031-.143-.118-.267-.155-.4-.04-.143-.016-.302-.063-.429-.052-.14-.136-.26-.198-.382-.072-.136-.134-.267-.22-.366-.134-.155-.293-.168-.45-.15-.153.02-.308.113-.473.137a.693.693 0 01-.472-.115c-.121-.07-.236-.155-.36-.226-.121-.072-.249-.134-.373-.202s-.242-.152-.366-.214a6.17 6.17 0 00-.388-.174c-.13-.053-.283-.05-.42-.09-.133-.04-.26-.121-.4-.15-.15-.027-.301.01-.435-.002-.155-.013-.298-.069-.431-.063-.162.01-.314.028-.432.069-.165.056-.304.155-.357.264-.056.112-.034.285.053.447.124.034.276.028.4.065.124.037.245.09.367.134.124.04.254.062.375.108.121.047.227.134.348.184.13.052.255.111.376.173.124.063.26.103.379.174.118.072.217.174.329.255.112.08.254.127.357.217.105.09.17.224.267.323.096.1.227.171.314.28.087.105.167.223.245.338.078.115.158.23.227.351.068.121.105.258.164.385.056.124.118.252.168.382.05.134.059.276.109.41.05.13.105.26.149.391.046.134.083.267.12.4.041.134.106.262.137.398.028.137.081.274.097.413.015.137-.022.283-.025.423 0 .146.04.292.04.438 0 .145 0 .291-.003.437 0 .146-.075.292-.075.438 0 .146.022.292.02.438 0 .146.033.292.033.438 0 .146-.068.292-.068.438 0 .146.062.292.062.438 0 .145.013.291.01.437 0 .146-.047.295-.047.441.062-.08.136-.22.242-.363.078-.106.174-.217.26-.342.082-.115.172-.23.252-.347.081-.121.134-.261.208-.38.081-.133.18-.241.24-.36.08-.16.152-.294.161-.397.012-.14-.016-.286-.006-.425.01-.143.074-.28.08-.423.007-.143-.04-.285-.037-.425.003-.143.066-.283.062-.425 0-.143-.024-.283-.028-.426-.003-.143-.062-.283-.068-.422-.006-.143-.01-.283-.022-.422-.012-.14-.015-.283-.028-.423z"
                  fill="#f8d775"
                />
                <path
                  d="M40.281 3.792c.04-.164.137-.323.174-.487.037-.165-.047-.354-.019-.519.032-.164.069-.329.094-.494.024-.167.062-.276.08-.444-.142.053-.251.031-.4.066-.15.034-.302.028-.454.04-.152.016-.3.08-.453.075-.152-.007-.298-.044-.45-.069 0-.13-.06-.251-.06-.382 0-.13.11-.257.11-.388 0-.13-.029-.258-.029-.388 0-.062-.198-.043-.444-.1-.124-.027-.245-.198-.41-.223a11.618 11.618 0 00-.44-.062c-.143-.019-.298.031-.45.015-.147-.015-.299.013-.448-.003-.149-.012-.292-.08-.438-.093-.152-.012-.3-.006-.444-.018-.155-.013-.3-.1-.438-.11-.164-.012-.32.06-.45.05-.227-.015-.388-.009-.444-.012-.149-.012-.298-.012-.447-.025-.15-.012-.298-.009-.447-.021-.15-.013-.292-.103-.441-.112-.15-.013-.301.04-.45.03-.15-.008-.295-.077-.444-.083-.15-.006-.302.05-.45.047-.15-.004-.299-.056-.448-.056-.149 0-.298-.007-.447-.003-.15.003-.301-.028-.45-.022-.15.01-.292.115-.438.127-.15.013-.295.019-.444.037-.15.019-.308-.034-.454-.009-.146.025-.294.047-.44.078-.146.03-.277.124-.423.164-.143.038-.304.025-.447.072-.14.046-.273.118-.416.174-.137.052-.283.096-.422.158-.134.059-.27.127-.404.196-.13.065-.224.21-.354.285-.127.075-.32.047-.447.128-.13.083-.233.208-.357.295-.128.087-.187.264-.308.357-.12.093-.32.093-.434.19-.118.099-.187.254-.299.356-.111.106-.236.196-.341.308-.106.108-.236.198-.339.313-.102.115-.189.243-.285.36-.097.122-.106.302-.193.426-.087.124-.282.177-.366.304-.081.128-.112.292-.187.426-.074.133-.174.254-.242.39-.068.138-.102.29-.164.43-.06.14-.063.3-.115.443-.053.143-.177.261-.224.407-.046.146-.105.29-.146.438-.037.146-.056.301-.09.45-.03.15-.1.292-.127.444-.025.15-.05.305-.069.457-.018.152.069.314.056.469-.012.152-.111.301-.114.456-.007.152.099.308.099.463 0 .152-.096.307-.09.463.006.152 0 .31.01.462.012.152.018.308.033.463.016.152.05.304.072.457.021.152.136.288.164.44.025.153.025.308.056.46.031.152.103.292.137.44.034.15-.013.32.025.47.037.149.074.301.118.447.043.149.146.28.192.425.047.146.04.31.093.457.053.146.196.255.252.397.056.143.028.323.09.463.062.143.211.242.276.382.069.14.128.28.2.413.07.137.157.264.235.394.078.134.096.28.177.407 0-.127-.053-.258-.071-.435-.016-.142.04-.307.018-.468-.018-.15-.056-.302-.077-.46-.022-.152-.028-.31-.044-.463-.018-.158-.096-.307-.109-.456-.012-.165-.074-.323-.074-.466 0-.18.096-.335.127-.46.019-.142-.034-.3-.006-.44.031-.14.065-.286.102-.423.04-.136.215-.233.261-.37.047-.136.06-.282.115-.412.056-.134.053-.292.115-.42.069-.14.249-.217.326-.35.078-.134.053-.33.14-.46.084-.13.155-.276.248-.397.094-.125.258-.193.358-.314.099-.118.155-.28.26-.391.106-.112.23-.215.342-.32.112-.109.239-.199.357-.301.118-.1.205-.246.326-.339.124-.093.289-.137.416-.22.128-.087.276-.137.404-.218.13-.08.223-.223.357-.298.134-.074.32-.056.453-.124.137-.072.23-.224.37-.289.14-.065.323-.025.463-.087.14-.059.264-.158.406-.211.143-.056.255-.199.398-.252.146-.05.295-.09.44-.136.147-.047.302-.06.451-.103.146-.04.317-.003.463-.04.149-.037.288-.106.438-.14.149-.034.294-.08.447-.108.149-.031.307-.013.46-.04.151-.026.294-.094.443-.116.143-.021.292-.015.441-.037.143-.022.28-.112.429-.133.146-.02.292-.022.44-.04l.442-.047c.146-.016.292-.063.438-.075.145-.012.3.1.45.09.146-.01.288-.109.438-.115.149-.006.295.006.444.006.149 0 .295.013.444.016.149.003.292.059.44.068.15.01.305-.077.45-.059.15.016.293.075.436.1.146.024.288.065.431.096.146.031.264.155.404.199.186.052.348.077.481.12.199.063.36.038.497.016.134-.025.199-.13.336-.31.08-.106.248-.187.347-.364.025-.043.022-.245.109-.468.053-.13.211-.243.27-.401.056-.146.093-.304.146-.45.06-.159 0-.351.047-.485.09-.264.214-.379.19-.379-.16-.003-.32-.055-.48-.055-.13-.013-.3-.004-.462-.007z"
                  fill="#f8d775"
                />
              </svg>