<?xml version="1.0" encoding="utf-8"?>
<!-- Svg Vector Icons : http://www.onlinewebfonts.com/icon -->
<!DOCTYPE svg PUBLIC "-//W3C//DTD SVG 1.1//EN" "http://www.w3.org/Graphics/SVG/1.1/DTD/svg11.dtd">
<svg version="1.1" xmlns="http://www.w3.org/2000/svg" xmlns:xlink="http://www.w3.org/1999/xlink" x="0px" y="0px" viewBox="0 0 1000 1000" enable-background="new 0 0 1000 1000" xml:space="preserve">
<metadata> Svg Vector Icons : http://www.onlinewebfonts.com/icon </metadata>
<g><g transform="translate(0.000000,512.000000) scale(0.100000,-0.100000)"><path d="M411.5,5006.9c-101.5-24.9-197.2-95.7-252.7-189.5l-51.7-90l-5.7-3723.8c-3.8-2739.7,0-3750.6,15.3-3825.3c24.9-116.8,103.4-216.3,212.5-273.8c70.8-36.4,135.9-36.4,2573.1-36.4h2498.5v191.5v191.4l-1631.2,3.8l-1633.1,5.7l-5.7,3069l-3.8,3067.1h3685.5h3685.5v-2039v-2039h201h201l-3.8,2705.2l-5.7,2703.3l-53.6,90c-34.5,59.3-84.2,109.1-143.6,143.6l-90,53.6l-4566.2,3.8C2525.2,5018.4,444.1,5014.5,411.5,5006.9z M6842.5,4558.9c279.5-164.6,260.4-578.2-30.6-719.9c-271.9-132.1-587.8,68.9-587.8,371.4C6224.1,4528.2,6564.9,4719.7,6842.5,4558.9z M8067.8,4558.9c279.5-164.6,260.4-578.2-30.6-719.9c-271.9-132.1-585.9,67-587.8,369.5C7447.5,4526.3,7792.1,4719.7,8067.8,4558.9z M9293.1,4558.9c279.5-164.6,260.4-578.2-30.6-719.9c-271.9-132.1-585.9,67-587.8,369.5C8672.8,4526.3,9017.4,4719.7,9293.1,4558.9z M1740.2,329.6l-5.7-3069l-616.5-5.7l-618.4-3.8V323.9v3072.8h622.2h622.2L1740.2,329.6z"/><path d="M920.8,2372.5v-201h201h201v201v201h-201h-201V2372.5z"/><path d="M920.8,1549.2v-201h201h201v201v201h-201h-201V1549.2z"/><path d="M920.8,735.5V544.1h201h201v191.5V927h-201h-201V735.5z"/><path d="M920.8-78.2v-201h201h201v201v201h-201h-201V-78.2z"/><path d="M920.8-901.4v-201h201h201v201v201h-201h-201V-901.4z"/><path d="M920.8-1715.1v-191.5h201h201v191.5v191.4h-201h-201V-1715.1z"/><path d="M3166.6,2330.3l-522.7-222.1v-147.4v-147.4l513.1-216.3c281.4-118.7,522.7-220.2,536.1-224c17.2-7.7,23,32.5,23,160.8v170.4l-352.3,122.5c-193.4,68.9-350.4,128.3-346.5,135.9c3.8,5.7,162.7,67,354.2,134l344.6,122.5v168.5c0,91.9-5.7,166.6-13.4,166.6C3693.1,2552.4,3451.8,2452.9,3166.6,2330.3z"/><path d="M5481.2,2389.7l5.7-170.4l363.8-128.3c346.5-120.6,361.9-128.3,306.3-149.3c-30.6-11.5-195.3-70.8-363.8-130.2L5487,1702.4l-5.7-166.6c-1.9-93.8,0-168.5,5.7-168.5c7.6,0,252.7,101.5,547.5,224l534.2,224v145.5v145.5l-511.2,214.4c-283.3,116.8-528.4,218.3-547.5,225.9C5479.3,2558.2,5475.5,2544.8,5481.2,2389.7z"/><path d="M4233,1960.8v-191.5h382.9h382.9v191.5v191.5h-382.9H4233V1960.8z"/><path d="M2548.2,735.5V544.1h612.7h612.7v191.5V927h-612.7h-612.7V735.5z"/><path d="M4194.7,735.5V544.1H5822h1627.4v191.5V927H5822H4194.7V735.5z"/><path d="M2548.2-78.2v-201h1225.3h1225.3v201v201H3773.5H2548.2V-78.2z"/><path d="M5420-78.2v-201h1014.7h1014.7v201v201H6434.7H5420V-78.2z"/><path d="M7445.6-934l-5.7-231.6l-57.4-19.2c-30.6-9.6-124.4-47.9-206.8-86.2l-149.3-68.9l-162.7,162.7l-160.8,160.8l-281.4-283.3l-283.3-281.4l160.8-160.8l162.7-162.7l-68.9-149.4c-38.3-82.3-76.6-174.2-86.2-206.8l-19.2-57.4l-231.7-5.7l-233.6-5.8v-400.1v-400.1l229.7-5.7l231.7-5.7l44.1-124.4c23-68.9,63.2-162.8,86.2-208.7l44-84.2L6293-3723.5l-164.6-164.6l287.2-287.2l287.2-287.2l160.8,160.8l160.8,160.8l160.8-68.9c86.2-38.3,181.9-74.7,212.5-80.4l51.7-13.4v-237.4v-237.4h402.1h400.1l5.7,231.7l5.7,231.7l114.9,42.1c63.2,23,158.9,65.1,210.6,91.9l95.7,51.7l168.5-166.6l166.6-166.6l281.4,283.4l283.3,281.4l-166.6,166.6L9251-3562.6l51.7,95.7c26.8,53.6,68.9,147.4,91.9,210.6l42.1,114.9l231.7,5.7l231.7,5.7v400.1v402.1h-237.4h-237.4l-13.4,53.6c-5.7,28.7-42.1,124.5-80.4,210.6l-68.9,160.8l160.8,160.8l160.8,160.8l-287.2,287.2l-287.2,287.2l-164.6-164.7L8680.4-1336l-84.2,44c-46,23-139.8,63.2-208.7,86.2l-124.5,44l-5.7,231.7l-5.7,229.7h-400.1h-400.1L7445.6-934z M8171.2-1762.9c181.9-61.3,315.9-147.4,436.5-281.4c195.3-214.4,289.1-474.8,271.9-752.4C8820.2-3662.2,7805.5-4070,7166-3486c-428.9,390.6-442.3,1062.6-30.6,1472.3c120.6,122.5,294.8,224,459.5,270C7757.6-1699.8,8004.6-1707.4,8171.2-1762.9z"/></g></g>
</svg>