<svg
    width="62"
    height="67"
    fill="none"
    xmlns="http://www.w3.org/2000/svg"
>
    <g class="laptop-animation laptop-parent-highlight">
        <path
                    d="M48.979 66.624H15.157a1.748 1.748 0 01-1.749-1.748V41.624c0-.966.783-1.749 1.749-1.749h33.825c.966 0 1.748.783 1.748 1.749v23.255a1.752 1.752 0 01-1.751 1.745z"
                    fill="#DEDEDE"
                  />
                  <path
                    class="laptop-light-animation laptop-light-parent-highlight"
                    d="M34.25 51.809c-.024.015-.602.335-.602 1.046.028.81.73 1.097.742 1.097-.012.015-.105.388-.385.776-.22.335-.465.677-.838.677-.354 0-.481-.224-.891-.224-.438 0-.562.224-.9.224-.373 0-.637-.357-.87-.69a3.388 3.388 0 01-.569-1.776c-.006-.348.063-.69.23-.981.24-.404.668-.68 1.134-.69.357-.012.674.246.894.246.208 0 .6-.245 1.04-.245a1.2 1.2 0 011.016.54zm-2.086-.612c-.062-.317.112-.636.276-.838.208-.246.54-.413.823-.413.019.316-.096.63-.304.857-.183.245-.5.431-.795.394z"
                    fill="#fff"
                  />
                </g>

                
              </svg>