<svg width="209" height="39" viewBox="0 0 209 39" fill="none" xmlns="http://www.w3.org/2000/svg">
<path d="M0.755 36.335L2.33 36.425H2.42C2.93 36.425 3.185 36.095 3.185 35.435V13.7C3.185 13.34 3.11 13.085 2.96 12.935C2.81 12.755 2.54 12.68 2.15 12.71L0.755 12.8V11.135H12.59C15.98 11.135 18.485 11.765 20.105 13.025C21.725 14.255 22.535 16.145 22.535 18.695C22.535 21.155 21.74 23.135 20.15 24.635C18.59 26.105 16.475 26.84 13.805 26.84H9.395V35.435C9.395 36.095 9.695 36.425 10.295 36.425L12.5 36.335V38H0.755V36.335ZM11.87 25.22C13.07 25.22 14.06 24.605 14.84 23.375C15.65 22.145 16.055 20.585 16.055 18.695C16.055 16.925 15.65 15.485 14.84 14.375C14.06 13.265 13.025 12.71 11.735 12.71H9.935C9.815 12.71 9.695 12.77 9.575 12.89C9.455 12.98 9.395 13.1 9.395 13.25V25.22H11.87ZM48.1832 36.335V38H34.6832V36.335L36.7532 36.425C37.6532 36.515 38.1032 36.155 38.1032 35.345C38.1032 34.835 37.9532 34.25 37.6532 33.59L35.9882 29.63H26.0882L24.5582 33.32C24.1382 34.25 23.9282 35 23.9282 35.57C23.9282 36.2 24.2582 36.5 24.9182 36.47L26.9432 36.335V38H18.7982V36.335L20.1032 36.425H20.2832C20.8832 36.425 21.3782 36.14 21.7682 35.57C22.2182 34.91 22.6682 34.04 23.1182 32.96L32.3882 10.685H34.5932L43.9532 33.05C44.3732 34.13 44.8082 34.985 45.2582 35.615C45.6782 36.155 46.2032 36.425 46.8332 36.425H47.0582L48.1832 36.335ZM26.7182 28.055H35.3582L30.9932 17.705L26.7182 28.055ZM49.0509 36.29L50.8059 36.425C51.2559 36.425 51.4809 36.095 51.4809 35.435V13.655C51.4809 13.385 51.3909 13.16 51.2109 12.98C51.0609 12.77 50.8659 12.68 50.6259 12.71L49.0509 12.8V11.135H60.7959V12.8L58.5909 12.71H58.5009C58.2609 12.71 58.0659 12.8 57.9159 12.98C57.7659 13.16 57.6909 13.385 57.6909 13.655V35.795C57.6909 36.185 57.8709 36.38 58.2309 36.38H61.9659C63.9159 36.38 65.4009 35.87 66.4209 34.85C67.4409 33.8 67.9509 32.285 67.9509 30.305H69.4359V38.135C68.8959 38.045 67.0359 38 63.8559 38H49.0509V36.29ZM68.3615 11C68.9015 11.06 69.6215 11.09 70.5215 11.09H89.3765C90.4865 11.09 91.1915 11.06 91.4915 11V18.02H90.0065C90.0065 16.19 89.5715 14.84 88.7015 13.97C87.8615 13.1 86.4515 12.665 84.4715 12.665H83.5715C83.2715 12.665 83.0915 12.83 83.0315 13.16V35.435C83.0315 36.095 83.3315 36.425 83.9315 36.425L86.3165 36.335V38H73.5365V36.335L75.9665 36.425C76.2365 36.425 76.4465 36.32 76.5965 36.11C76.7465 35.87 76.8215 35.6 76.8215 35.3V13.205C76.8215 12.845 76.6415 12.665 76.2815 12.665H75.4715C73.4915 12.665 72.0665 13.1 71.1965 13.97C70.3265 14.84 69.8915 16.19 69.8915 18.02H68.3615V11ZM117.143 11.135C119.693 11.135 121.628 11.675 122.948 12.755C124.268 13.835 124.928 15.44 124.928 17.57C124.928 19.16 124.358 20.51 123.218 21.62C122.108 22.7 120.608 23.405 118.718 23.735C120.128 23.735 121.418 24.035 122.588 24.635C123.758 25.235 124.688 26.075 125.378 27.155C126.068 28.205 126.413 29.39 126.413 30.71C126.413 35.57 123.098 38 116.468 38H103.148V36.335L105.308 36.425C105.788 36.425 106.028 36.095 106.028 35.435V13.61C106.028 13.4 105.953 13.205 105.803 13.025C105.683 12.815 105.503 12.71 105.263 12.71L103.148 12.8V11.135H117.143ZM112.778 12.71C112.478 12.71 112.298 12.89 112.238 13.25V23.195H114.578C115.958 23.195 116.978 22.775 117.638 21.935C118.298 21.065 118.628 19.685 118.628 17.795C118.628 14.405 117.248 12.71 114.488 12.71H112.778ZM112.238 24.77V35.795C112.238 36.185 112.448 36.38 112.868 36.38H115.073C116.603 36.38 117.803 35.9 118.673 34.94C119.573 33.98 120.023 32.54 120.023 30.62C120.023 28.58 119.663 27.095 118.943 26.165C118.223 25.235 117.128 24.77 115.658 24.77H112.238ZM153.145 11.135V12.8L151.795 12.71C151.315 12.71 150.895 13.025 150.535 13.655L143.83 25.625V35.48C143.83 36.11 144.13 36.425 144.73 36.425L146.89 36.335V38H134.56V36.335L136.765 36.425C137.335 36.425 137.62 36.095 137.62 35.435V26.48L129.88 13.565C129.52 12.995 129.16 12.71 128.8 12.71L127.495 12.8V11.135H139.645V12.8L137.26 12.71H137.215C136.885 12.71 136.72 12.86 136.72 13.16C136.72 13.34 136.795 13.55 136.945 13.79L142.93 23.735L148.6 13.61C148.69 13.46 148.735 13.31 148.735 13.16C148.735 12.86 148.585 12.71 148.285 12.71L145.945 12.8V11.135H153.145ZM154.432 36.335L156.007 36.425H156.097C156.607 36.425 156.862 36.095 156.862 35.435V13.655C156.862 13.385 156.772 13.16 156.592 12.98C156.442 12.77 156.202 12.68 155.872 12.71L154.432 12.8V11.135H166.087C169.327 11.135 171.712 11.69 173.242 12.8C174.802 13.88 175.582 15.575 175.582 17.885C175.582 19.715 174.997 21.245 173.827 22.475C172.687 23.705 171.097 24.53 169.057 24.95C170.137 24.95 171.232 25.25 172.342 25.85C173.452 26.45 174.367 27.335 175.087 28.505C175.837 29.645 176.212 30.98 176.212 32.51C176.212 33.35 176.332 34.25 176.572 35.21C176.842 36.14 177.157 36.65 177.517 36.74C177.697 36.8 177.892 36.83 178.102 36.83C178.372 36.83 178.612 36.77 178.822 36.65V38H170.857C170.497 37.25 170.287 36.26 170.227 35.03C170.167 34.25 170.137 33.68 170.137 33.32V31.835C170.137 29.795 169.567 28.28 168.427 27.29C167.287 26.3 165.907 25.805 164.287 25.805H163.072V35.435C163.072 36.095 163.372 36.425 163.972 36.425L166.177 36.335V38H154.432V36.335ZM165.907 24.23C166.987 24.23 167.842 23.72 168.472 22.7C169.132 21.65 169.462 20.24 169.462 18.47C169.462 16.46 169.102 15.005 168.382 14.105C167.662 13.175 166.552 12.71 165.052 12.71H163.612C163.252 12.71 163.072 12.86 163.072 13.16V24.23H165.907ZM208.012 36.335V38H194.512V36.335L196.582 36.425C197.482 36.515 197.932 36.155 197.932 35.345C197.932 34.835 197.782 34.25 197.482 33.59L195.817 29.63H185.917L184.387 33.32C183.967 34.25 183.757 35 183.757 35.57C183.757 36.2 184.087 36.5 184.747 36.47L186.772 36.335V38H178.627V36.335L179.932 36.425H180.112C180.712 36.425 181.207 36.14 181.597 35.57C182.047 34.91 182.497 34.04 182.947 32.96L192.217 10.685H194.422L203.782 33.05C204.202 34.13 204.637 34.985 205.087 35.615C205.507 36.155 206.032 36.425 206.662 36.425H206.887L208.012 36.335ZM186.547 28.055H195.187L190.822 17.705L186.547 28.055ZM189.472 4.34C189.472 3.29 189.847 2.405 190.597 1.685C191.347 0.964998 192.277 0.604999 193.387 0.604999C194.527 0.604999 195.472 0.964998 196.222 1.685C196.972 2.375 197.347 3.26 197.347 4.34C197.347 5.42 196.972 6.32 196.222 7.04C195.472 7.73 194.527 8.075 193.387 8.075C192.247 8.075 191.302 7.73 190.552 7.04C189.832 6.32 189.472 5.42 189.472 4.34ZM191.722 4.34C191.722 4.94 191.872 5.405 192.172 5.735C192.472 6.065 192.877 6.23 193.387 6.23C193.897 6.23 194.302 6.065 194.602 5.735C194.932 5.375 195.097 4.91 195.097 4.34C195.097 3.77 194.932 3.32 194.602 2.99C194.302 2.66 193.897 2.495 193.387 2.495C192.877 2.495 192.472 2.66 192.172 2.99C191.872 3.32 191.722 3.77 191.722 4.34Z" fill="#060606"/>
</svg>
