<svg width="208" height="39" viewBox="0 0 208 39" fill="none" xmlns="http://www.w3.org/2000/svg">
<path d="M0.171016 36.3478L1.74602 36.4378H1.83602C2.34602 36.4378 2.60102 36.1078 2.60102 35.4478V13.7128C2.60102 13.3528 2.52602 13.0978 2.37602 12.9478C2.22602 12.7678 1.95602 12.6928 1.56602 12.7228L0.171016 12.8128V11.1478H12.006C15.396 11.1478 17.901 11.7778 19.521 13.0378C21.141 14.2678 21.951 16.1578 21.951 18.7078C21.951 21.1678 21.156 23.1478 19.566 24.6478C18.006 26.1178 15.891 26.8528 13.221 26.8528H8.81102V35.4478C8.81102 36.1078 9.11102 36.4378 9.71102 36.4378L11.916 36.3478V38.0128H0.171016V36.3478ZM11.286 25.2328C12.486 25.2328 13.476 24.6178 14.256 23.3878C15.066 22.1578 15.471 20.5978 15.471 18.7078C15.471 16.9378 15.066 15.4978 14.256 14.3878C13.476 13.2778 12.441 12.7228 11.151 12.7228H9.35102C9.23102 12.7228 9.11102 12.7828 8.99102 12.9028C8.87102 12.9928 8.81102 13.1128 8.81102 13.2628V25.2328H11.286ZM47.5993 36.3478V38.0128H34.0993V36.3478L36.1693 36.4378C37.0693 36.5278 37.5193 36.1678 37.5193 35.3578C37.5193 34.8478 37.3693 34.2628 37.0693 33.6028L35.4043 29.6428H25.5043L23.9743 33.3328C23.5543 34.2628 23.3443 35.0128 23.3443 35.5828C23.3443 36.2128 23.6743 36.5128 24.3343 36.4828L26.3593 36.3478V38.0128H18.2143V36.3478L19.5193 36.4378H19.6993C20.2993 36.4378 20.7943 36.1528 21.1843 35.5828C21.6343 34.9228 22.0843 34.0528 22.5343 32.9728L31.8043 10.6978H34.0093L43.3693 33.0628C43.7893 34.1428 44.2243 34.9978 44.6743 35.6278C45.0943 36.1678 45.6193 36.4378 46.2493 36.4378H46.4743L47.5993 36.3478ZM26.1343 28.0678H34.7743L30.4093 17.7178L26.1343 28.0678ZM48.4669 36.3028L50.2219 36.4378C50.6719 36.4378 50.8969 36.1078 50.8969 35.4478V13.6678C50.8969 13.3978 50.8069 13.1728 50.6269 12.9928C50.4769 12.7828 50.2819 12.6928 50.0419 12.7228L48.4669 12.8128V11.1478H60.2119V12.8128L58.0069 12.7228H57.9169C57.6769 12.7228 57.4819 12.8128 57.3319 12.9928C57.1819 13.1728 57.1069 13.3978 57.1069 13.6678V35.8078C57.1069 36.1978 57.2869 36.3928 57.6469 36.3928H61.3819C63.3319 36.3928 64.8169 35.8828 65.8369 34.8628C66.8569 33.8128 67.3669 32.2978 67.3669 30.3178H68.8519V38.1478C68.3119 38.0578 66.4519 38.0128 63.2719 38.0128H48.4669V36.3028ZM67.7775 11.0128C68.3175 11.0728 69.0375 11.1028 69.9375 11.1028H88.7925C89.9025 11.1028 90.6075 11.0728 90.9075 11.0128V18.0328H89.4225C89.4225 16.2028 88.9875 14.8528 88.1175 13.9828C87.2775 13.1128 85.8675 12.6778 83.8875 12.6778H82.9875C82.6875 12.6778 82.5075 12.8428 82.4475 13.1728V35.4478C82.4475 36.1078 82.7475 36.4378 83.3475 36.4378L85.7325 36.3478V38.0128H72.9525V36.3478L75.3825 36.4378C75.6525 36.4378 75.8625 36.3328 76.0125 36.1228C76.1625 35.8828 76.2375 35.6128 76.2375 35.3128V13.2178C76.2375 12.8578 76.0575 12.6778 75.6975 12.6778H74.8875C72.9075 12.6778 71.4825 13.1128 70.6125 13.9828C69.7425 14.8528 69.3075 16.2028 69.3075 18.0328H67.7775V11.0128ZM116.559 11.1478C119.109 11.1478 121.044 11.6878 122.364 12.7678C123.684 13.8478 124.344 15.4528 124.344 17.5828C124.344 19.1728 123.774 20.5228 122.634 21.6328C121.524 22.7128 120.024 23.4178 118.134 23.7478C119.544 23.7478 120.834 24.0478 122.004 24.6478C123.174 25.2478 124.104 26.0878 124.794 27.1678C125.484 28.2178 125.829 29.4028 125.829 30.7228C125.829 35.5828 122.514 38.0128 115.884 38.0128H102.564V36.3478L104.724 36.4378C105.204 36.4378 105.444 36.1078 105.444 35.4478V13.6228C105.444 13.4128 105.369 13.2178 105.219 13.0378C105.099 12.8278 104.919 12.7228 104.679 12.7228L102.564 12.8128V11.1478H116.559ZM112.194 12.7228C111.894 12.7228 111.714 12.9028 111.654 13.2628V23.2078H113.994C115.374 23.2078 116.394 22.7878 117.054 21.9478C117.714 21.0778 118.044 19.6978 118.044 17.8078C118.044 14.4178 116.664 12.7228 113.904 12.7228H112.194ZM111.654 24.7828V35.8078C111.654 36.1978 111.864 36.3928 112.284 36.3928H114.489C116.019 36.3928 117.219 35.9128 118.089 34.9528C118.989 33.9928 119.439 32.5528 119.439 30.6328C119.439 28.5928 119.079 27.1078 118.359 26.1778C117.639 25.2478 116.544 24.7828 115.074 24.7828H111.654ZM152.561 11.1478V12.8128L151.211 12.7228C150.731 12.7228 150.311 13.0378 149.951 13.6678L143.246 25.6378V35.4928C143.246 36.1228 143.546 36.4378 144.146 36.4378L146.306 36.3478V38.0128H133.976V36.3478L136.181 36.4378C136.751 36.4378 137.036 36.1078 137.036 35.4478V26.4928L129.296 13.5778C128.936 13.0078 128.576 12.7228 128.216 12.7228L126.911 12.8128V11.1478H139.061V12.8128L136.676 12.7228H136.631C136.301 12.7228 136.136 12.8728 136.136 13.1728C136.136 13.3528 136.211 13.5628 136.361 13.8028L142.346 23.7478L148.016 13.6228C148.106 13.4728 148.151 13.3228 148.151 13.1728C148.151 12.8728 148.001 12.7228 147.701 12.7228L145.361 12.8128V11.1478H152.561ZM153.848 36.3478L155.423 36.4378H155.513C156.023 36.4378 156.278 36.1078 156.278 35.4478V13.6678C156.278 13.3978 156.188 13.1728 156.008 12.9928C155.858 12.7828 155.618 12.6928 155.288 12.7228L153.848 12.8128V11.1478H165.503C168.743 11.1478 171.128 11.7028 172.658 12.8128C174.218 13.8928 174.998 15.5878 174.998 17.8978C174.998 19.7278 174.413 21.2578 173.243 22.4878C172.103 23.7178 170.513 24.5428 168.473 24.9628C169.553 24.9628 170.648 25.2628 171.758 25.8628C172.868 26.4628 173.783 27.3478 174.503 28.5178C175.253 29.6578 175.628 30.9928 175.628 32.5228C175.628 33.3628 175.748 34.2628 175.988 35.2228C176.258 36.1528 176.573 36.6628 176.933 36.7528C177.113 36.8128 177.308 36.8428 177.518 36.8428C177.788 36.8428 178.028 36.7828 178.238 36.6628V38.0128H170.273C169.913 37.2628 169.703 36.2728 169.643 35.0428C169.583 34.2628 169.553 33.6928 169.553 33.3328V31.8478C169.553 29.8078 168.983 28.2928 167.843 27.3028C166.703 26.3128 165.323 25.8178 163.703 25.8178H162.488V35.4478C162.488 36.1078 162.788 36.4378 163.388 36.4378L165.593 36.3478V38.0128H153.848V36.3478ZM165.323 24.2428C166.403 24.2428 167.258 23.7328 167.888 22.7128C168.548 21.6628 168.878 20.2528 168.878 18.4828C168.878 16.4728 168.518 15.0178 167.798 14.1178C167.078 13.1878 165.968 12.7228 164.468 12.7228H163.028C162.668 12.7228 162.488 12.8728 162.488 13.1728V24.2428H165.323ZM207.428 36.3478V38.0128H193.928V36.3478L195.998 36.4378C196.898 36.5278 197.348 36.1678 197.348 35.3578C197.348 34.8478 197.198 34.2628 196.898 33.6028L195.233 29.6428H185.333L183.803 33.3328C183.383 34.2628 183.173 35.0128 183.173 35.5828C183.173 36.2128 183.503 36.5128 184.163 36.4828L186.188 36.3478V38.0128H178.043V36.3478L179.348 36.4378H179.528C180.128 36.4378 180.623 36.1528 181.013 35.5828C181.463 34.9228 181.913 34.0528 182.363 32.9728L191.633 10.6978H193.838L203.198 33.0628C203.618 34.1428 204.053 34.9978 204.503 35.6278C204.923 36.1678 205.448 36.4378 206.078 36.4378H206.303L207.428 36.3478ZM185.963 28.0678H194.603L190.238 17.7178L185.963 28.0678ZM188.888 4.35276C188.888 3.30275 189.263 2.41775 190.013 1.69775C190.763 0.977755 191.693 0.617755 192.803 0.617755C193.943 0.617755 194.888 0.977755 195.638 1.69775C196.388 2.38775 196.763 3.27275 196.763 4.35276C196.763 5.43276 196.388 6.33276 195.638 7.05276C194.888 7.74276 193.943 8.08776 192.803 8.08776C191.663 8.08776 190.718 7.74276 189.968 7.05276C189.248 6.33276 188.888 5.43276 188.888 4.35276ZM191.138 4.35276C191.138 4.95275 191.288 5.41775 191.588 5.74776C191.888 6.07776 192.293 6.24275 192.803 6.24275C193.313 6.24275 193.718 6.07776 194.018 5.74776C194.348 5.38776 194.513 4.92276 194.513 4.35276C194.513 3.78276 194.348 3.33275 194.018 3.00275C193.718 2.67275 193.313 2.50775 192.803 2.50775C192.293 2.50775 191.888 2.67275 191.588 3.00275C191.288 3.33275 191.138 3.78276 191.138 4.35276Z" fill="white"/>
</svg>
